<svg xmlns="http://www.w3.org/2000/svg" viewBox="0 0 920 430" role="img" aria-labelledby="title desc">
  <title id="title">Satisfactory</title>
  <desc id="desc">Factory banner for Satisfactory</desc>
  <defs>
    <linearGradient id="bg" x1="0" x2="1" y1="0" y2="1">
      <stop offset="0" stop-color="#221006"/>
      <stop offset="0.48" stop-color="#463015"/>
      <stop offset="1" stop-color="#10171a"/>
    </linearGradient>
    <linearGradient id="belt" x1="0" x2="1">
      <stop offset="0" stop-color="#ff8a24"/>
      <stop offset="1" stop-color="#ffd166"/>
    </linearGradient>
  </defs>
  <rect width="920" height="430" fill="url(#bg)"/>
  <circle cx="770" cy="83" r="92" fill="#ffb23f" opacity=".24"/>
  <path d="M0 326h920v104H0z" fill="#10171a"/>
  <path d="M70 315h780" stroke="url(#belt)" stroke-width="32" stroke-linecap="round"/>
  <g fill="#18242a" stroke="#ffb23f" stroke-width="8">
    <rect x="552" y="160" width="82" height="132" rx="8"/>
    <rect x="660" y="120" width="92" height="172" rx="8"/>
    <rect x="779" y="188" width="66" height="104" rx="8"/>
  </g>
  <g fill="#ffb23f">
    <rect x="569" y="126" width="18" height="34"/>
    <rect x="595" y="108" width="18" height="52"/>
    <rect x="691" y="74" width="18" height="46"/>
    <rect x="720" y="56" width="18" height="64"/>
    <rect x="797" y="152" width="16" height="36"/>
  </g>
  <g opacity=".48" stroke="#ffd166" stroke-width="5">
    <path d="M92 284l80-58 96 58 88-58 92 58" fill="none"/>
    <path d="M112 348h680" />
  </g>
  <text x="56" y="168" fill="#fff8e8" font-family="Arial, Helvetica, sans-serif" font-size="64" font-weight="900">Satisfactory</text>
  <text x="60" y="218" fill="#ffd166" font-family="Arial, Helvetica, sans-serif" font-size="25" font-weight="700">Factory • Codex • Calculator</text>
</svg>
